<svg width="36" height="42" viewBox="0 0 36 42" fill="none" xmlns="http://www.w3.org/2000/svg">
<path d="M20.7977 35.2776L20.5347 35.3198L20.423 35.5616L18.0004 40.8072H17.9996L15.577 35.5616L15.4653 35.3198L15.2023 35.2776C6.86718 33.9387 0.5 26.7125 0.5 18C0.5 8.33498 8.33522 0.5 18 0.5C27.6648 0.5 35.5 8.33498 35.5 18C35.5 26.7125 29.1328 33.9387 20.7977 35.2776Z" fill="#E9ECEF" stroke="#2B3035"/>
<path d="M11 11V16C10.2083 16.0208 9.54167 16.2812 9 16.7812V10.5625C9.02083 10.125 9.16667 9.76042 9.4375 9.46875C9.72917 9.17708 10.0833 9.02083 10.5 9H25.5C25.9167 9.02083 26.2708 9.17708 26.5625 9.46875C26.8333 9.76042 26.9792 10.125 27 10.5625V16.7812C26.4583 16.2812 25.7917 16.0208 25 16V11H11ZM16 19C16.0208 18.4375 16.2188 17.9688 16.5938 17.5938C16.9688 17.2188 17.4375 17.0208 18 17C18.5625 17.0208 19.0312 17.2188 19.4062 17.5938C19.7812 17.9688 19.9792 18.4375 20 19C19.9792 19.5625 19.7812 20.0312 19.4062 20.4062C19.0312 20.7812 18.5625 20.9792 18 21C17.4375 20.9792 16.9688 20.7812 16.5938 20.4062C16.2188 20.0312 16.0208 19.5625 16 19ZM18.75 22C19.375 22.0208 19.9062 22.25 20.3438 22.6875C20.7604 23.125 20.9792 23.6771 21 24.3438C20.9583 24.7396 20.7396 24.9583 20.3438 25H15.6562C15.2604 24.9583 15.0417 24.7396 15 24.3438C15.0208 23.6771 15.2396 23.125 15.6562 22.6875C16.0938 22.25 16.625 22.0208 17.25 22H18.75ZM25.75 22C26.375 22.0208 26.9062 22.25 27.3438 22.6875C27.7604 23.125 27.9792 23.6771 28 24.3438C27.9583 24.7396 27.7396 24.9583 27.3438 25H22.6562C22.2604 24.9583 22.0417 24.7396 22 24.3438C22.0208 23.6771 22.2396 23.125 22.6562 22.6875C23.0938 22.25 23.625 22.0208 24.25 22H25.75ZM23 19C23.0208 18.4375 23.2188 17.9688 23.5938 17.5938C23.9688 17.2188 24.4375 17.0208 25 17C25.5625 17.0208 26.0312 17.2188 26.4062 17.5938C26.7812 17.9688 26.9792 18.4375 27 19C26.9792 19.5625 26.7812 20.0312 26.4062 20.4062C26.0312 20.7812 25.5625 20.9792 25 21C24.4375 20.9792 23.9688 20.7812 23.5938 20.4062C23.2188 20.0312 23.0208 19.5625 23 19ZM9 19C9.02083 18.4375 9.21875 17.9688 9.59375 17.5938C9.96875 17.2188 10.4375 17.0208 11 17C11.5625 17.0208 12.0312 17.2188 12.4062 17.5938C12.7812 17.9688 12.9792 18.4375 13 19C12.9792 19.5625 12.7812 20.0312 12.4062 20.4062C12.0312 20.7812 11.5625 20.9792 11 21C10.4375 20.9792 9.96875 20.7812 9.59375 20.4062C9.21875 20.0312 9.02083 19.5625 9 19ZM11.75 22C12.375 22.0208 12.9062 22.25 13.3438 22.6875C13.7604 23.125 13.9792 23.6771 14 24.3438C13.9583 24.7396 13.7396 24.9583 13.3438 25H8.65625C8.26042 24.9583 8.04167 24.7396 8 24.3438C8.02083 23.6771 8.23958 23.125 8.65625 22.6875C9.09375 22.25 9.625 22.0208 10.25 22H11.75Z" fill="#2B3035"/>
</svg>
