<svg width="36" height="42" viewBox="0 0 36 42" fill="none" xmlns="http://www.w3.org/2000/svg">
<path d="M20.7977 35.508L20.5347 35.5503L20.423 35.7921L18.0004 41.0377H17.9996L15.577 35.7921L15.4653 35.5503L15.2023 35.508C6.86718 34.1692 0.5 26.943 0.5 18.2305C0.5 8.56545 8.33522 0.730469 18 0.730469C27.6648 0.730469 35.5 8.56545 35.5 18.2305C35.5 26.943 29.1328 34.1692 20.7977 35.508Z" fill="#E9ECEF" stroke="#2B3035"/>
<path d="M9.5 13.4805C9.45833 13.9388 9.20833 14.1888 8.75 14.2305C8.29167 14.1888 8.04167 13.9388 8 13.4805V10.2305C8 9.9388 8.09375 9.69922 8.28125 9.51172C8.46875 9.32422 8.70833 9.23047 9 9.23047H12.25C12.7083 9.27214 12.9583 9.52214 13 9.98047C12.9583 10.4388 12.7083 10.6888 12.25 10.7305H9.5V13.4805ZM12 14.7305C12 14.3138 12.1458 13.9596 12.4375 13.668C12.7083 13.3971 13.0625 13.2513 13.5 13.2305C13.9167 13.2513 14.2708 13.3971 14.5625 13.668C14.8333 13.9596 14.9792 14.3138 15 14.7305C14.9792 15.1471 14.8333 15.5013 14.5625 15.793C14.2708 16.0638 13.9167 16.2096 13.5 16.2305C13.0625 16.2096 12.7083 16.0638 12.4375 15.793C12.1458 15.5013 12 15.1471 12 14.7305ZM14.8438 17.2305C15.1354 17.2305 15.3958 17.293 15.625 17.418C15.1042 17.6263 14.6667 17.9284 14.3125 18.3242C13.9583 18.7201 13.7188 19.1888 13.5938 19.7305H11.8438C11.3229 19.6888 11.0417 19.4076 11 18.8867C11.0208 18.4284 11.1875 18.043 11.5 17.7305C11.8125 17.418 12.1979 17.2513 12.6562 17.2305H14.8438ZM24.1562 19.7305H22.4062C22.1146 18.6263 21.4271 17.8555 20.3438 17.418C20.6146 17.293 20.8854 17.2305 21.1562 17.2305H23.3438C23.8021 17.2513 24.1875 17.418 24.5 17.7305C24.8125 18.043 24.9792 18.4284 25 18.8867C24.9583 19.4076 24.6771 19.6888 24.1562 19.7305ZM21.5 20.4805C21.4583 20.9388 21.2083 21.1888 20.75 21.2305H15.25C14.7917 21.1888 14.5417 20.9388 14.5 20.4805C14.5 20.2096 14.5417 19.9596 14.625 19.7305C14.9375 18.9388 15.5104 18.4388 16.3438 18.2305C16.4479 18.2305 16.5312 18.2305 16.5938 18.2305C16.6562 18.2305 16.7083 18.2305 16.75 18.2305H19.25C19.2917 18.2305 19.3438 18.2305 19.4062 18.2305C19.4688 18.2305 19.5417 18.2305 19.625 18.2305C20.4792 18.4388 21.0625 18.9388 21.375 19.7305C21.4583 19.9596 21.5 20.2096 21.5 20.4805ZM21 14.7305C21.0208 14.3138 21.1667 13.9596 21.4375 13.668C21.7292 13.3971 22.0833 13.2513 22.5 13.2305C22.9167 13.2513 23.2708 13.3971 23.5625 13.668C23.8333 13.9596 23.9792 14.3138 24 14.7305C23.9792 15.1471 23.8333 15.5013 23.5625 15.793C23.2708 16.0638 22.9167 16.2096 22.5 16.2305C22.0833 16.2096 21.7292 16.0638 21.4375 15.793C21.1667 15.5013 21.0208 15.1471 21 14.7305ZM20 15.2305C19.9792 15.793 19.7812 16.2617 19.4062 16.6367C19.0312 17.0117 18.5625 17.2096 18 17.2305C17.4375 17.2096 16.9688 17.0117 16.5938 16.6367C16.2188 16.2617 16.0208 15.793 16 15.2305C16.0208 14.668 16.2188 14.1992 16.5938 13.8242C16.9688 13.4492 17.4375 13.2513 18 13.2305C18.5625 13.2513 19.0312 13.4492 19.4062 13.8242C19.7812 14.1992 19.9792 14.668 20 15.2305ZM23 9.98047C23.0417 9.52214 23.2917 9.27214 23.75 9.23047H27C27.2917 9.23047 27.5312 9.32422 27.7188 9.51172C27.9062 9.69922 28 9.9388 28 10.2305V13.4805C27.9583 13.9388 27.7083 14.1888 27.25 14.2305C26.7917 14.1888 26.5417 13.9388 26.5 13.4805V10.7305H23.75C23.2917 10.6888 23.0417 10.4388 23 9.98047ZM9.5 23.7305H12.25C12.7083 23.7721 12.9583 24.0221 13 24.4805C12.9583 24.9388 12.7083 25.1888 12.25 25.2305H9C8.70833 25.2305 8.46875 25.1367 8.28125 24.9492C8.09375 24.7617 8 24.5221 8 24.2305V20.9805C8.04167 20.5221 8.29167 20.2721 8.75 20.2305C9.20833 20.2721 9.45833 20.5221 9.5 20.9805V23.7305ZM23.75 23.7305H26.5V20.9805C26.5417 20.5221 26.7917 20.2721 27.25 20.2305C27.7083 20.2721 27.9583 20.5221 28 20.9805V24.2305C28 24.5221 27.9062 24.7617 27.7188 24.9492C27.5312 25.1367 27.2917 25.2305 27 25.2305H23.75C23.2917 25.1888 23.0417 24.9388 23 24.4805C23.0417 24.0221 23.2917 23.7721 23.75 23.7305Z" fill="#2B3035"/>
</svg>
