<svg width="36" height="42" viewBox="0 0 36 42" fill="none" xmlns="http://www.w3.org/2000/svg">
<path d="M20.7977 35.2776L20.5347 35.3198L20.423 35.5616L18.0004 40.8072H17.9996L15.577 35.5616L15.4653 35.3198L15.2023 35.2776C6.86718 33.9387 0.5 26.7125 0.5 18C0.5 8.33498 8.33522 0.5 18 0.5C27.6648 0.5 35.5 8.33498 35.5 18C35.5 26.7125 29.1328 33.9387 20.7977 35.2776Z" fill="#E9ECEF" stroke="#2B3035"/>
<path d="M26 18V21.5C25.9792 22.2083 25.7292 22.8021 25.25 23.2812C24.7917 23.7396 24.2083 23.9792 23.5 24C23.0833 23.9792 22.7292 23.8333 22.4375 23.5625C22.1667 23.2708 22.0208 22.9167 22 22.5V18.5C22.0208 18.0833 22.1667 17.7292 22.4375 17.4375C22.7292 17.1667 23.0833 17.0208 23.5 17C23.8333 17 24.1458 17.0729 24.4375 17.2188C24.2083 15.5521 23.5 14.1979 22.3125 13.1562C21.125 12.0938 19.6875 11.5417 18 11.5C16.3125 11.5417 14.875 12.0938 13.6875 13.1562C12.5 14.1979 11.7917 15.5521 11.5625 17.2188C11.8542 17.0729 12.1667 17 12.5 17C12.9167 17.0208 13.2708 17.1667 13.5625 17.4375C13.8333 17.7292 13.9792 18.0833 14 18.5V22.5C13.9792 22.9167 13.8333 23.2708 13.5625 23.5625C13.2708 23.8333 12.9167 23.9792 12.5 24C11.7917 23.9792 11.2083 23.7396 10.75 23.2812C10.2917 22.8021 10.0521 22.2083 10.0312 21.5L10 18C10.0208 16.5208 10.3854 15.1771 11.0938 13.9688C11.8021 12.7604 12.7604 11.8021 13.9688 11.0938C15.1771 10.3854 16.5208 10.0208 18 10C19.4792 10.0208 20.8229 10.3854 22.0312 11.0938C23.2188 11.8021 24.1667 12.7604 24.875 13.9688C25.6042 15.1562 25.9688 16.4896 25.9688 17.9688C25.9688 17.9896 25.9792 18 26 18Z" fill="#2B3035"/>
</svg>
